# xmcd CD database file
# Copyright (C) 1995-1998 Ti Kan
#
# Track frame offsets:
#	150
#	20343
#	35828
#	47773
#	60528
#	70870
#	82538
#	94323
#	109292
#	121923
#	147480
#	159645
#	170045
#	183273
#	195965
#
# Disc length: 2794 seconds
#
# Revision: 3
# Processed by: cddbd v1.5PL3 Copyright (c) Steve Scherf et al.
# Submitted via: CDex 1.30Release
#
DISCID=c90ae80f
DTITLE=Various Artist - Memphis Archives Rock and Roll Sermon
DYEAR=1994
DGENRE=Blues
TTITLE0=Elder Beck - Rock and Roll Sermon
TTITLE1=Rev. Utah Smith - I Got Two Wings
TTITLE2=Bro. Willie Eason and HIs Gospel Guitar - I Want to Live
TTITLE3=Evangalist Sister Rosetta Winn - Do Lord Remember Me
TTITLE4=Sister Iramae Littleton - Go Devil Go
TTITLE5=Rev. A. Johnson - God Don't Like It
TTITLE6=Blind Charles White - How Long
TTITLE7=Elder R. Wilson and Family - Better Get Ready
TTITLE8=Sister Matthews - Stand By Me
TTITLE9=Elder Lightfoot Solomon Michaux - I Am So Happy
TTITLE10=Evangelist Sister Myrtle Miller and Sister Ella Friday - Storm Passin
TTITLE10=g Over
TTITLE11=The Sisters of Song - Watch Your Step
TTITLE12=Rev. Steward and Family - I Made A Vow to God
TTITLE13=The Two Gospel Keys - If I Never See You Anymore
TTITLE14=Sister Little Mae Littlejohn - Dead Cat on the Line
EXTD=YEAR: 1994 ID3G:   0
EXTT0=
EXTT1=
EXTT2=
EXTT3=
EXTT4=
EXTT5=
EXTT6=
EXTT7=
EXTT8=
EXTT9=
EXTT10=
EXTT11=
EXTT12=
EXTT13=
EXTT14=
PLAYORDER=
